<?xml version="1.0" encoding="utf-8"?>
<!-- Generator: Adobe Illustrator 19.2.1, SVG Export Plug-In . SVG Version: 6.00 Build 0)  -->
<svg version="1.1" id="Layer_1" xmlns="http://www.w3.org/2000/svg" xmlns:xlink="http://www.w3.org/1999/xlink" x="0px" y="0px"
	 viewBox="0 0 38 50" style="enable-background:new 0 0 38 50;" xml:space="preserve">
<style type="text/css">
	.st0{fill:#2F3838;}
	.st1{fill:#596666;}
	.st2{fill:#FCE780;}
	.st3{fill:#FBD435;}
	.st4{fill:#070808;}
	.st5{fill:#3E4848;}
	.st6{fill:#010101;}
	.st7{fill:#FFFFFF;}
</style>
<path id="svg_33_2_" class="st0" d="M16.3,40.5l-7.7,0.5c-0.7,0-1.3-0.5-1.4-1.1l0,0c0-0.7,0.5-1.3,1.1-1.4L16,38
	c0.7,0,1.3,0.5,1.4,1.1l0,0C17.5,39.9,17,40.5,16.3,40.5z"/>
<path id="svg_34_2_" class="st0" d="M16.3,44.3l-7.7,0.5c-0.7,0-1.3-0.5-1.4-1.1l0,0c0-0.7,0.5-1.3,1.1-1.4l7.7-0.5
	c0.7,0,1.3,0.5,1.4,1.1l0,0C17.5,43.7,17,44.3,16.3,44.3L16.3,44.3z"/>
<g id="svg_35_2_">
	<path id="svg_36_2_" class="st1" d="M8.4,46.1H8.3c0.2,2.2,2.1,3.9,4.1,3.9c2.3,0,4.1-1.9,4.1-4.4c0,0,0,0,0-0.1L8.4,46.1L8.4,46.1
		z"/>
</g>
<g id="svg_37_2_">
	<path id="svg_38_2_" class="st2" d="M24.6,20c0-6.7-5.4-12.3-12.3-12.3S0,13.2,0,20c0,3.2,1.1,6,3.1,8.1C5,30.4,6,31.2,6,35.3v0.3
		c0,0.6,0.5,1.1,1.1,1.1h10.5c0.6,0,1.1-0.5,1.1-1.1v-0.2c0-4.2,1.1-4.9,3.2-7.7l0,0C23.6,25.7,24.6,22.9,24.6,20L24.6,20z"/>
	<path id="svg_39_2_" class="st2" d="M21.9,27.8l0.1-0.2C22,27.6,21.9,27.8,21.9,27.8L21.9,27.8z"/>
</g>
<path id="svg_40_2_" class="st3" d="M24.6,20c0-6.7-5.4-12.3-12.3-12.3v29h5.2c0.6,0,1.1-0.5,1.1-1.1v-0.2c0-4.2,1.1-4.9,3.2-7.7
	l0,0C23.6,25.7,24.6,22.9,24.6,20z"/>
<path id="svg_41_2_" class="st4" d="M17.5,43.1v-0.4c0-0.6-0.5-0.9-1.1-0.9l-4,0.3v2.4l3.9-0.3C17.1,44.2,17.5,43.7,17.5,43.1
	L17.5,43.1z"/>
<path id="svg_42_2_" class="st4" d="M17.5,39.4v-0.3c0-0.6-0.5-1.1-1.4-1.1l-3.7,0.3v2.5l4.2-0.3C17.1,40.5,17.5,39.9,17.5,39.4z"/>
<path id="svg_43_2_" class="st5" d="M16.5,45.6l-4.1,0.3V50C14.7,50,16.5,48.1,16.5,45.6C16.5,45.6,16.5,45.6,16.5,45.6L16.5,45.6z"
	/>
<g>
	<path class="st6" d="M9.7,21.8v1.9l-6.9-2.9v-1.7l6.9-3v2L4.8,20L9.7,21.8z"/>
	<path class="st6" d="M14,16.1L12,24c-0.1,0.3-0.1,0.5-0.2,0.6c-0.1,0.1-0.1,0.3-0.2,0.3c-0.1,0.1-0.3,0.1-0.4,0.1
		c-0.5,0-0.7-0.2-0.7-0.6c0-0.1,0.1-0.4,0.1-0.8l1.9-7.9c0.1-0.4,0.2-0.7,0.3-0.9c0.1-0.1,0.3-0.3,0.5-0.3c0.2,0,0.4,0.1,0.5,0.1
		c0.1,0.1,0.2,0.3,0.2,0.5C14.1,15.4,14,15.7,14,16.1z"/>
	<path class="st6" d="M21.8,20.8l-6.9,3v-1.9l4.8-1.9l-4.8-1.9v-1.9l6.9,3V20.8z"/>
</g>
<circle class="st4" cx="30.5" cy="7.3" r="7.3"/>
<g>
	<rect x="29.6" y="2.7" class="st7" width="1.9" height="9.3"/>
	<rect x="25.8" y="6.4" class="st7" width="9.3" height="1.9"/>
</g>
</svg>
