<?xml version="1.0" encoding="UTF-8"?>
<svg width="47px" height="50px" viewBox="0 0 47 50" version="1.1" xmlns="http://www.w3.org/2000/svg" xmlns:xlink="http://www.w3.org/1999/xlink">
    <!-- Generator: Sketch 42 (36781) - http://www.bohemiancoding.com/sketch -->
    <title>Group 27</title>
    <desc>Created with Sketch.</desc>
    <defs></defs>
    <g id="Page-1" stroke="none" stroke-width="1" fill="none" fill-rule="evenodd">
        <g id="Group-27" transform="translate(1.125969, 0.272505)">
            <g id="Group-18">
                <g id="Group" transform="translate(0.326858, 0.564746)" stroke="#5596E6" stroke-width="1.9998" stroke-linecap="round">
                    <path d="M14.9660481,0.291546392 C6.70556701,0.291546392 0.0971821306,6.9971134 0.0971821306,15.2575945 C0.0971821306,19.339244 2.13800687,23.3237113 5.05347079,26.3363574 C8.45484536,29.9320962 9.2323024,32.3616495 9.2323024,35.1799313 L9.2323024,35.9573883 L20.6026117,35.9573883 L20.6026117,35.1799313 C20.6026117,32.3616495 21.3800687,29.9320962 24.7814433,26.3363574 C27.6969072,23.3237113 29.737732,19.4364261 29.737732,15.2575945 C29.8349141,6.9971134 23.1293471,0.291546392 14.9660481,0.291546392" id="XMLID_722_" stroke-linejoin="round"></path>
                    <path d="M9.2323024,39.8446735 L20.6026117,39.8446735" id="XMLID_721_"></path>
                    <path d="M9.2323024,43.8291409 L20.6026117,43.8291409" id="XMLID_720_"></path>
                    <path d="M11.4674914,47.8136082 L18.3674227,47.8136082" id="XMLID_719_"></path>
                </g>
                <path d="M11.6051976,18.9003279 L3.98513783,15.7303294 L3.98513783,13.7465672 L11.6051976,10.5832706 L11.6051976,12.9624449 L6.97418502,14.7451502 L11.6051976,16.5345574 L11.6051976,18.9003279 Z M16.2374015,9.65840848 L17.6313966,9.65840848 L15.1650976,19.8117862 L13.7845063,19.8117862 L16.2374015,9.65840848 Z M19.7637921,18.9003279 L27.3838518,15.7303294 L27.3838518,13.7465672 L19.7637921,10.5832706 L19.7637921,12.9624449 L24.3948046,14.7451502 L19.7637921,16.5345574 L19.7637921,18.9003279 Z" id="&lt;/&gt;" fill="#5596E6"></path>
            </g>
            <g id="Group-33-Copy-2" transform="translate(21.000000, 25.500000)">
                <g id="Group-23">
                    <ellipse id="Oval-5" fill="#325C80" cx="12.1162811" cy="12.1162811" rx="12.1162811" ry="12.1162811"></ellipse>
                    <g id="Page-1-Copy" transform="translate(3.461795, 3.461795)" fill="#FFFFFF">
                        <path d="M14.9265122,6.73136641 L13.1336492,8.5249286 C12.1176469,9.54093089 10.5037906,9.57589312 9.43184874,8.65848431 L12.2456087,5.84402511 L11.5037103,5.10282592 L8.68995031,7.91658587 C7.7725415,6.84464402 7.80890221,5.23078767 8.82280677,4.21548463 L10.6177675,2.42192243 C11.1505918,1.88909811 11.8498363,1.62268595 12.5490808,1.62268595 C13.2497238,1.62268595 13.9489683,1.88909811 14.4810934,2.42192243 L14.9265122,2.86734119 C15.9914616,3.9322906 15.9914616,5.66641701 14.9265122,6.73136641 M8.52702634,13.1308523 L6.73346414,14.9244144 C5.66851474,15.9893639 3.93368908,15.9893639 2.86873968,14.9244144 L2.42332092,14.4796949 C1.35977001,13.4147455 1.35977001,11.6799199 2.42332092,10.6149705 L4.2182816,8.82140828 C4.75040668,8.2892832 5.4496512,8.02287104 6.14889572,8.02287104 C6.7831105,8.02287104 7.40963359,8.25292248 7.91938285,8.68855182 L5.10422441,11.5023118 L5.84612285,12.2442102 L8.66058204,9.42975101 C9.57869009,10.5023921 9.54163013,12.1169477 8.52702634,13.1308523 M15.6684106,2.12544276 L15.2229919,1.680024 C14.5111609,0.96889232 13.5622861,0.576616145 12.5504793,0.576616145 C11.5365747,0.576616145 10.5876999,0.96889232 9.87586902,1.680024 L8.08160758,3.47428544 C7.36977666,4.18541711 6.97819972,5.13569041 6.97819972,6.14819648 C6.97819972,6.48173612 7.03553778,6.80338859 7.11804863,7.11665014 C6.80478708,7.03413929 6.48383385,6.97680124 6.15029421,6.97680124 C5.1370889,6.97680124 4.18821409,7.36837817 3.47638317,8.08020909 L1.68212173,9.87307204 C0.208114283,11.3477787 0.208114283,13.7468867 1.68212173,15.2215934 L2.12684125,15.6656136 C2.83867217,16.3774446 3.78894547,16.7690215 4.80145153,16.7690215 C5.81325835,16.7690215 6.76353166,16.3774446 7.47536258,15.6656136 L9.26822553,13.8727507 C9.98005645,13.1609198 10.3716334,12.2113457 10.3716334,11.1988396 C10.3716334,10.8653 10.3149946,10.5436475 10.2324837,10.2310852 C10.5457453,10.3128968 10.8673977,10.3702349 11.2009374,10.3702349 C12.2127442,10.3702349 13.1637167,9.97865796 13.8748484,9.26682704 L15.6684106,7.47326484 C16.3795423,6.76143392 16.7718185,5.81185987 16.7718185,4.79865456 C16.7718185,3.78684774 16.3795423,2.83727368 15.6684106,2.12544276" id="Fill-1"></path>
                    </g>
                </g>
            </g>
        </g>
    </g>
</svg>
