<?xml version="1.0" encoding="utf-8"?>
<!-- Generator: Adobe Illustrator 19.0.0, SVG Export Plug-In . SVG Version: 6.00 Build 0)  -->
<svg version="1.1" id="Layer_1" xmlns="http://www.w3.org/2000/svg" xmlns:xlink="http://www.w3.org/1999/xlink" x="0px" y="0px"
	 viewBox="-61.3 275.5 285.6 189.5" style="enable-background:new -61.3 275.5 285.6 189.5;" xml:space="preserve">
<style type="text/css">
	.st0{fill:none;}
	.st1{fill:#975AD1;}
	.st2{font-family:'Arial-BoldMT';}
	.st3{font-size:11px;}
	.st4{fill:#FC5255;}
	.st5{font-size:12px;}
	.st6{fill:#FFFFFF;stroke:#5AAAFA;stroke-miterlimit:10;}
	.st7{fill:#2E3737;}
	.st8{fill:#586565;}
	.st9{fill:#FCE77F;}
	.st10{fill:#FCD432;}
	.st11{fill:#030506;}
	.st12{fill:#3D4747;}
	.st13{fill:#FC42A0;}
	.st14{fill:#64BC46;}
	.st15{fill:#C3D12E;}
	.st16{fill:#31C4F3;}
	.st17{fill:none;stroke:#5AAAFA;stroke-width:2;stroke-miterlimit:10;}
	.st18{fill:#5AAAFA;}
</style>
<title>background</title>
<rect id="canvas_background" x="-60.3" y="275.5" class="st0" width="284.6" height="150"/>
<title>Layer 1</title>
<rect id="svg_5" x="-61.3" y="275.5" class="st1" width="134.3" height="4.5"/>
<g id="svg_125">
	<path id="svg_126" class="st0" d="M214.6,372"/>
</g>
<text id="deliver" transform="matrix(1 0 0 1 -60.8682 292.2954)" class="st2 st3">DELIVER</text>
<rect id="svg_121_1_" x="82" y="275.5" class="st4" width="140.3" height="4.5"/>
<text id="learn" transform="matrix(1 0 0 1 81.9 292.95)" class="st2 st5">LEARN</text>
<circle id="svg_83" class="st6" cx="125.8" cy="380.4" r="35"/>
<path id="svg_100" class="st7" d="M129.8,394.8l-9,0.7c-0.8,0-1.5-0.5-1.6-1.3l0,0c0-0.8,0.5-1.5,1.3-1.6l9-0.7
	c0.8,0,1.5,0.5,1.6,1.3l0,0C131.2,394.1,130.6,394.8,129.8,394.8z"/>
<path id="svg_101" class="st7" d="M129.8,399.2l-9,0.7c-0.8,0-1.5-0.5-1.6-1.3l0,0c0-0.8,0.5-1.5,1.3-1.6l9-0.5
	c0.8,0,1.5,0.5,1.6,1.3l0,0C131.2,398.5,130.6,399.2,129.8,399.2L129.8,399.2z"/>
<g id="svg_102">
	<path id="svg_103" class="st8" d="M120.6,401.3h-0.1c0.3,2.5,2.4,4.5,4.8,4.5c2.6,0,4.8-2.2,4.8-5c0,0,0,0,0-0.1L120.6,401.3
		L120.6,401.3z"/>
</g>
<g id="svg_104">
	<path id="svg_105" class="st9" d="M139.4,371c0-7.8-6.3-14.3-14.3-14.3s-14.3,6.3-14.3,14.3c0,3.7,1.3,7,3.6,9.4
		c2.2,2.8,3.3,3.7,3.3,8.3v0.4c0,0.7,0.5,1.2,1.2,1.2h12.2c0.7,0,1.2-0.5,1.2-1.2v-0.3c0-4.9,1.2-5.7,3.7-8.8l0,0
		C138.2,377.6,139.4,374.5,139.4,371L139.4,371z"/>
	<path id="svg_106" class="st9" d="M136.2,380.1l0.1-0.3C136.4,379.9,136.2,380,136.2,380.1L136.2,380.1z"/>
</g>
<path id="svg_107" class="st10" d="M139.4,371c0-7.8-6.3-14.3-14.3-14.3v33.5h6.1c0.7,0,1.2-0.5,1.2-1.2v-0.3c0-4.9,1.2-5.7,3.7-8.8
	l0,0C138.2,377.6,139.4,374.5,139.4,371z"/>
<path id="svg_108" class="st11" d="M131.2,397.8v-0.5c0-0.7-0.7-1.2-1.3-1.2l-4.6,0.4v3l4.9-0.4
	C130.7,399.2,131.2,398.5,131.2,397.8L131.2,397.8z"/>
<path id="svg_109" class="st11" d="M131.2,393.5v-0.4c0-0.7-0.7-1.2-1.3-1.2l-4.6,0.4v2.9l4.9-0.4
	C130.7,394.8,131.2,394.1,131.2,393.5z"/>
<path id="svg_110" class="st12" d="M130,400.6l-4.8,0.4v4.8C127.9,405.8,130,403.5,130,400.6C130,400.7,130,400.7,130,400.6
	L130,400.6z"/>
<circle id="svg_111" class="st1" cx="125.3" cy="371.3" r="8.8"/>
<path id="svg_112" class="st13" d="M125.3,362.4v17.7c4.9,0,8.8-4,8.8-8.8C134,366.4,130.2,362.4,125.3,362.4z"/>
<path id="svg_113" class="st14" d="M132,377c1.7-2.1,2.4-4.8,2-7.3l-8.7,1.6l-5.7,6.7C123.3,381.2,128.8,380.7,132,377z"/>
<text id="devops" transform="matrix(1 0 0 1 101.4 448.4998)" class="st2 st5">DEVOPS</text>
<text id="insights" transform="matrix(1 0 0 1 98.4 462.4998)" class="st2 st5">INSIGHTS</text>
<circle id="svg_83_1_" class="st6" cx="-11.9" cy="380" r="35"/>
<text id="devops_1_" transform="matrix(1 0 0 1 -36.6 447.4998)" class="st2 st5">URBAN</text>
<text id="insights_1_" transform="matrix(1 0 0 1 -33.6 461.4998)" class="st2 st5">CODE</text>
<g>
	<path class="st15" d="M-33.3,381.4c0,0.5,0,1,0,1.4h-0.8l-0.1-0.9h0c-0.3,0.4-0.8,1-1.7,1c-0.8,0-1.8-0.5-1.8-2.3v-3.1h1v2.9
		c0,1,0.3,1.7,1.2,1.7c0.6,0,1.1-0.4,1.3-0.9c0.1-0.2,0.1-0.3,0.1-0.5v-3.2h1V381.4z"/>
	<path class="st15" d="M-32,379.2c0-0.6,0-1.2,0-1.6h0.8l0,1h0c0.2-0.7,0.8-1.2,1.5-1.2c0.1,0,0.2,0,0.3,0v0.9c-0.1,0-0.2,0-0.3,0
		c-0.7,0-1.2,0.5-1.3,1.2c0,0.1,0,0.3,0,0.4v2.8H-32V379.2z"/>
	<path class="st15" d="M-27.7,380.7c0,0.1,0,0.2,0,0.3c0.2,0.7,0.7,1.1,1.4,1.1c1,0,1.6-0.8,1.6-2c0-1.1-0.5-2-1.6-2
		c-0.7,0-1.3,0.4-1.5,1.2c0,0.1-0.1,0.3-0.1,0.4L-27.7,380.7z M-28.7,375.1h0.9v3.3h0c0.3-0.6,0.9-1,1.8-1c1.3,0,2.2,1.1,2.2,2.7
		c0,1.9-1.2,2.8-2.4,2.8c-0.8,0-1.4-0.3-1.8-1h0l0,0.9h-0.8c0-0.4,0-0.9,0-1.4V375.1z"/>
	<path class="st15" d="M-20,380.1c-1,0-2.2,0.2-2.2,1.2c0,0.6,0.4,0.9,0.9,0.9c0.7,0,1.1-0.4,1.3-0.9c0-0.1,0.1-0.2,0.1-0.3V380.1z
		 M-19,381.5c0,0.5,0,0.9,0.1,1.3h-0.9l-0.1-0.7h0c-0.3,0.4-0.9,0.8-1.6,0.8c-1.1,0-1.6-0.7-1.6-1.5c0-1.3,1.1-2,3.2-2v-0.1
		c0-0.4-0.1-1.2-1.2-1.2c-0.5,0-1,0.2-1.4,0.4l-0.2-0.6c0.4-0.3,1.1-0.5,1.7-0.5c1.6,0,2,1.1,2,2.2L-19,381.5z"/>
	<path class="st15" d="M-17.8,379c0-0.5,0-1,0-1.4h0.8l0.1,0.9h0c0.3-0.5,0.9-1,1.7-1c0.7,0,1.9,0.4,1.9,2.2v3.1h-1v-3
		c0-0.8-0.3-1.6-1.2-1.6c-0.6,0-1.1,0.4-1.3,1c0,0.1-0.1,0.3-0.1,0.4v3.2h-1V379z"/>
	<path class="st16" d="M-11.9,379.1c0.8,0,0.8-0.4,0.8-0.7c0-0.3,0-0.6-0.1-0.8c0-0.3-0.1-0.6-0.1-0.9c0-1,0.6-1.5,1.7-1.5h0.4v0.9
		h-0.2c-0.5,0-0.7,0.3-0.7,0.8c0,0.2,0,0.4,0.1,0.6c0,0.2,0,0.5,0.1,0.7c0,0.8-0.3,1.1-0.9,1.3v0c0.6,0.1,0.9,0.4,0.9,1.3
		c0,0.3,0,0.5-0.1,0.8c0,0.2-0.1,0.4-0.1,0.6c0,0.5,0.2,0.8,0.7,0.8h0.2v0.9h-0.4c-1,0-1.6-0.4-1.6-1.5c0-0.3,0-0.6,0.1-0.9
		c0-0.3,0.1-0.6,0.1-0.8c0-0.3-0.1-0.7-0.8-0.7L-11.9,379.1z"/>
	<path class="st16" d="M-4.4,382.5c-0.3,0.1-0.8,0.2-1.5,0.2c-1.7,0-2.8-1.1-2.8-2.7c0-1.6,1.1-2.8,3-2.8c0.4,0,0.9,0.1,1.3,0.2
		l-0.3,1.2c-0.2-0.1-0.5-0.2-0.9-0.2c-0.9,0-1.4,0.6-1.4,1.5c0,1,0.7,1.5,1.5,1.5c0.4,0,0.7-0.1,0.9-0.2L-4.4,382.5z"/>
	<path class="st16" d="M-2.5,380c0,0.9,0.4,1.6,1.1,1.6c0.6,0,1.1-0.6,1.1-1.6c0-0.8-0.3-1.6-1.1-1.6C-2.2,378.4-2.5,379.2-2.5,380
		 M1.4,380c0,1.9-1.4,2.8-2.8,2.8c-1.6,0-2.7-1-2.7-2.7c0-1.7,1.1-2.8,2.8-2.8C0.3,377.2,1.4,378.4,1.4,380"/>
	<path class="st16" d="M5.7,379.6c0-0.1,0-0.2,0-0.3c-0.1-0.4-0.5-0.8-1-0.8c-0.8,0-1.1,0.7-1.1,1.5c0,0.9,0.4,1.5,1.1,1.5
		c0.5,0,0.9-0.3,1-0.8c0-0.1,0-0.3,0-0.4V379.6z M7.3,375v6.1c0,0.6,0,1.2,0,1.6H5.9l-0.1-0.8h0c-0.3,0.6-1,0.9-1.7,0.9
		c-1.3,0-2.3-1.1-2.3-2.7c0-1.8,1.1-2.8,2.4-2.8c0.7,0,1.2,0.2,1.4,0.6h0V375H7.3z"/>
	<path class="st16" d="M11.6,379.4c0-0.4-0.2-1.1-0.9-1.1c-0.7,0-1,0.6-1,1.1H11.6z M9.6,380.5c0.1,0.7,0.7,1,1.5,1
		c0.5,0,1-0.1,1.5-0.2l0.2,1.1c-0.5,0.2-1.2,0.3-1.9,0.3c-1.8,0-2.8-1.1-2.8-2.7c0-1.3,0.8-2.8,2.7-2.8c1.7,0,2.4,1.3,2.4,2.7
		c0,0.2,0,0.4-0.1,0.7L9.6,380.5z"/>
	<path class="st16" d="M16.3,380c-0.7,0-0.8,0.4-0.8,0.7c0,0.3,0,0.6,0.1,0.8c0,0.3,0.1,0.6,0.1,0.9c0,1.1-0.7,1.5-1.7,1.5h-0.4V383
		h0.2c0.5,0,0.7-0.3,0.7-0.8c0-0.2,0-0.4-0.1-0.6c0-0.3,0-0.5-0.1-0.8c0-0.8,0.3-1.1,0.9-1.3v0c-0.6-0.1-0.9-0.4-0.9-1.3
		c0-0.3,0-0.5,0.1-0.7c0-0.2,0.1-0.4,0.1-0.6c0-0.5-0.2-0.8-0.7-0.8h-0.2v-0.9h0.4c1,0,1.7,0.4,1.7,1.5c0,0.3,0,0.6-0.1,0.9
		c0,0.3-0.1,0.6-0.1,0.8c0,0.3,0.1,0.7,0.8,0.7L16.3,380z"/>
</g>
<polyline id="svg_134_1_" class="st17" points="-10.8,336.9 -10.8,322.8 125.8,322.8 "/>
<line id="svg_136_1_" class="st18" x1="355.4" y1="440.2" x2="365.4" y2="440.2"/>
<g transform="matrix(1, 0, 0, 1, -371, -109.300003)">
	<polygon id="polygon-2" class="st18" points="365.4,443.2 360.4,451.9 355.4,443.2 	"/>
</g>
<line id="svg_18_1_" class="st17" x1="126.4" y1="336" x2="126.4" y2="321.8"/>
<g id="svg_198_1_">
	<polygon id="svg_199_1_" class="st18" points="130.9,334 126.1,343.3 121.3,334 	"/>
</g>
</svg>
